<svg width="12" height="13" viewBox="0 0 12 13" fill="none" xmlns="http://www.w3.org/2000/svg">
<path d="M5.85412 11.0119L9.02525 8.19038C10.7767 6.63213 10.7767 4.10563 9.02525 2.54734C7.27391 0.989053 4.43434 0.989053 2.68295 2.54734C0.931569 4.10563 0.931569 6.63213 2.68295 8.19038L5.85412 11.0119ZM5.85412 12.6242L1.77691 8.99658C-0.474872 6.99302 -0.474872 3.74471 1.77691 1.74119C4.02869 -0.262323 7.67952 -0.262323 9.93136 1.74119C12.1831 3.74471 12.1831 6.99302 9.93136 8.99658L5.85412 12.6242ZM5.85412 6.50894C6.56181 6.50894 7.13546 5.99854 7.13546 5.36887C7.13546 4.73923 6.56181 4.2288 5.85412 4.2288C5.14643 4.2288 4.57278 4.73923 4.57278 5.36887C4.57278 5.99854 5.14643 6.50894 5.85412 6.50894ZM5.85412 7.64902C4.43879 7.64902 3.29143 6.62814 3.29143 5.36887C3.29143 4.10959 4.43879 3.08873 5.85412 3.08873C7.26943 3.08873 8.41681 4.10959 8.41681 5.36887C8.41681 6.62814 7.26943 7.64902 5.85412 7.64902Z" fill="#0B2545"/>
</svg>
