<svg width="19" height="19" viewBox="0 0 19 19" fill="none" xmlns="http://www.w3.org/2000/svg">
<path d="M0.666504 18.3334C0.666504 14.6515 3.65127 11.6667 7.33317 11.6667C11.0151 11.6667 13.9998 14.6515 13.9998 18.3334H0.666504ZM7.33317 10.8334C4.57067 10.8334 2.33317 8.59587 2.33317 5.83337C2.33317 3.07087 4.57067 0.833374 7.33317 0.833374C10.0957 0.833374 12.3332 3.07087 12.3332 5.83337C12.3332 8.59587 10.0957 10.8334 7.33317 10.8334ZM13.4688 12.6944C16.04 13.3515 17.9731 15.603 18.1528 18.3334H15.6665C15.6665 16.1585 14.8333 14.1783 13.4688 12.6944ZM11.7833 10.7975C13.1438 9.57687 13.9998 7.8051 13.9998 5.83337C13.9998 4.65226 13.6927 3.54288 13.1539 2.58077C15.0626 2.96168 16.4998 4.64558 16.4998 6.66671C16.4998 8.96879 14.6353 10.8334 12.3332 10.8334C12.1468 10.8334 11.9632 10.8211 11.7833 10.7975Z" fill="#8DA9C4"/>
</svg>
