<svg width="35" height="35" viewBox="0 0 35 35" fill="none" xmlns="http://www.w3.org/2000/svg">
<path d="M5.19531 25.7031H15.4492V27.7539H5.19531V25.7031Z" fill="#8DA9C4"/>
<path d="M5.19531 19.5508H15.4492V21.6016H5.19531V19.5508Z" fill="#8DA9C4"/>
<path d="M27.7539 15.4492H7.24609C6.70219 15.4492 6.18057 15.2332 5.79597 14.8486C5.41138 14.464 5.19531 13.9423 5.19531 13.3984V7.24609C5.19531 6.70219 5.41138 6.18057 5.79597 5.79597C6.18057 5.41138 6.70219 5.19531 7.24609 5.19531H27.7539C28.2978 5.19531 28.8194 5.41138 29.204 5.79597C29.5886 6.18057 29.8047 6.70219 29.8047 7.24609V13.3984C29.8047 13.9423 29.5886 14.464 29.204 14.8486C28.8194 15.2332 28.2978 15.4492 27.7539 15.4492ZM7.24609 7.24609V13.3984H27.7539V7.24609H7.24609Z" fill="#8DA9C4"/>
<path d="M27.7539 29.8047H21.6016C21.0577 29.8047 20.536 29.5886 20.1514 29.204C19.7668 28.8194 19.5508 28.2978 19.5508 27.7539V21.6016C19.5508 21.0577 19.7668 20.536 20.1514 20.1514C20.536 19.7668 21.0577 19.5508 21.6016 19.5508H27.7539C28.2978 19.5508 28.8194 19.7668 29.204 20.1514C29.5886 20.536 29.8047 21.0577 29.8047 21.6016V27.7539C29.8047 28.2978 29.5886 28.8194 29.204 29.204C28.8194 29.5886 28.2978 29.8047 27.7539 29.8047ZM21.6016 21.6016V27.7539H27.7539V21.6016H21.6016Z" fill="#8DA9C4"/>
</svg>
