<svg width="10" height="10" viewBox="0 0 10 10" fill="none" xmlns="http://www.w3.org/2000/svg">
<g clip-path="url(#clip0_1861_1044)">
<path d="M1.83308 4.84037C1.83308 4.55428 1.91785 4.27913 2.0754 4.04619C2.02363 3.87909 1.99688 3.704 1.99688 3.53047C1.99688 2.78215 2.46849 2.13023 3.15219 1.88548C3.21316 1.32754 3.571 0.847424 4.07526 0.617613C3.81609 0.198116 3.40702 -0.0478493 3.02991 0.0132947C2.75736 0.0575893 2.53155 0.242758 2.39884 0.522249C2.15999 0.412468 1.9116 0.394229 1.69377 0.470833C1.45805 0.553863 1.27497 0.73139 1.16432 0.98413C1.01754 1.31886 1.01736 1.74965 1.15928 2.15924C0.968032 2.29056 0.825073 2.48355 0.741521 2.72552C0.600994 3.13181 0.647894 3.62201 0.870062 4.07103C0.894381 4.12002 0.920958 4.16866 0.949966 4.21642C0.741347 4.35209 0.585187 4.55324 0.501461 4.79868C0.368403 5.18813 0.427289 5.64706 0.663006 6.05735C0.771224 6.24582 0.914531 6.41657 1.08146 6.55692C1.0257 6.79038 1.06791 7.04694 1.20375 7.27918C1.39361 7.60314 1.73563 7.82288 2.10111 7.85988C2.59061 8.77982 3.18224 9.24917 4.02836 9.65581C3.02313 8.4675 2.46415 7.48329 2.43271 5.99916C2.06272 5.73495 1.83308 5.30086 1.83308 4.84037Z" fill="#EEF4ED"/>
<path d="M9.56717 3.48333C9.58107 2.80693 9.1838 2.19844 8.56819 1.93545C8.47839 1.35823 8.01321 0.90712 7.43512 0.83069C7.42991 0.773193 7.41896 0.715871 7.40246 0.659243C7.3005 0.311139 6.99356 0.049019 6.63903 0.00698247C6.40714 -0.0206366 6.18792 0.0375545 6.00675 0.16488C5.8452 0.0580516 5.65708 0.000381696 5.46427 0.000381696C4.96765 0.000381696 4.55492 0.367246 4.48301 0.844239C3.91517 0.958884 3.48942 1.46488 3.48942 2.05687C3.48942 2.08866 3.49081 2.12045 3.49324 2.15276C2.8349 2.27122 2.34332 2.84323 2.34332 3.53058C2.34332 3.7293 2.38622 3.92628 2.46856 4.10745C2.28356 4.3053 2.17969 4.56569 2.17969 4.84049C2.17969 5.25112 2.41558 5.62355 2.7781 5.80281C2.76212 7.37709 3.33552 8.33282 4.45418 9.62066L4.51723 9.6924L4.52869 9.70543C4.69823 9.89564 4.94229 10.0002 5.21622 10.0002C5.26364 10.0002 5.31037 9.99621 5.3564 9.99031L5.29699 9.87497C4.9237 8.98716 4.69458 8.19889 4.56674 7.49817C4.08505 7.34982 3.87678 6.96489 3.86758 6.94718C3.82276 6.86241 3.85559 6.75714 3.94036 6.7125C4.0246 6.66786 4.12935 6.70017 4.17468 6.78441C4.18111 6.7964 4.28221 6.97427 4.50333 7.09552C4.44288 6.64093 4.42534 6.22578 4.44288 5.85162C4.4408 5.83269 4.44167 5.8141 4.44601 5.79499C4.47624 5.26016 4.57386 4.80748 4.70275 4.42811C4.11754 4.07914 4.04527 3.42948 4.09565 3.11421C4.11076 3.01954 4.20005 2.95405 4.29454 2.97004C4.38921 2.98515 4.45365 3.07391 4.43889 3.16841C4.43455 3.19637 4.35655 3.77255 4.83042 4.09668C4.85404 4.04197 4.87784 3.9876 4.90251 3.9367C5.35935 2.99383 6.01231 2.52466 6.26505 2.36989C6.26452 2.02196 6.4926 1.71971 6.50337 1.70564C6.56156 1.62938 6.67099 1.61514 6.74673 1.67316C6.82281 1.73135 6.8374 1.84026 6.77939 1.91634C6.74065 1.96776 6.66457 2.09578 6.63052 2.23665C7.03056 2.19132 7.42105 2.41713 7.44085 2.42895C7.52371 2.47776 7.55098 2.58424 7.50234 2.66675C7.46986 2.72164 7.41184 2.75221 7.35261 2.75221C7.32256 2.75221 7.29233 2.74457 7.26472 2.72824C7.14364 2.65754 6.77504 2.50138 6.52248 2.62228C6.47853 2.64469 6.18288 2.8038 5.84642 3.15486C6.5355 3.10466 7.01475 3.30928 7.0389 3.3197C7.12662 3.35844 7.16657 3.46092 7.12818 3.54865C7.09952 3.61361 7.03577 3.65252 6.9689 3.65252C6.94579 3.65252 6.92217 3.648 6.89959 3.63793C6.88656 3.63237 6.29892 3.38884 5.52003 3.5509C5.36404 3.77029 5.21396 4.03328 5.08959 4.34664C5.08924 4.36957 5.08455 4.39285 5.07447 4.41508C5.06787 4.42985 5.05902 4.4427 5.04929 4.45451C4.95045 4.72532 4.87072 5.02982 4.82278 5.37376C5.21552 5.12745 5.71093 5.11668 5.73924 5.11633C5.73994 5.11633 5.74063 5.11633 5.74133 5.11633C5.83617 5.11633 5.91347 5.19241 5.91486 5.2876C5.91625 5.38349 5.83947 5.46218 5.74376 5.46374C5.73646 5.46391 5.02167 5.48059 4.77848 5.89522C4.76146 6.31889 4.79082 6.79188 4.88114 7.31821C4.88201 7.3222 4.88253 7.3262 4.88305 7.33037C5.00465 8.03196 5.23324 8.82596 5.61209 9.72732L5.69477 9.88678C5.82227 9.82251 5.93205 9.73357 6.01039 9.62414C6.14119 9.4414 6.17211 9.21975 6.09707 9.00002C5.78302 8.07851 5.79274 7.37536 6.12591 6.90983C6.55774 6.30621 7.45718 6.21605 7.95467 6.21605C8.21088 6.21605 8.38685 6.23968 8.38858 6.24002L8.56715 6.26434L8.58504 6.08508C8.58748 6.06146 8.63872 5.50178 8.31215 5.12154C8.29322 5.09948 8.27324 5.07864 8.25275 5.05866C8.34498 5.03799 8.43618 5.00863 8.52581 4.97077C9.14489 4.70969 9.55379 4.12569 9.56717 3.48333Z" fill="#EEF4ED"/>
</g>
<defs>
<clipPath id="clip0_1861_1044">
<rect width="10" height="10" fill="white"/>
</clipPath>
</defs>
</svg>
