<svg width="16" height="16" viewBox="0 0 16 16" fill="none" xmlns="http://www.w3.org/2000/svg">
<path d="M11.3333 8.83333V2.16667H2.99996V8.83333C2.99996 9.75383 3.74615 10.5 4.66663 10.5H9.66663C10.5871 10.5 11.3333 9.75383 11.3333 8.83333ZM2.16663 0.5H14.6666C15.5871 0.5 16.3333 1.24619 16.3333 2.16667V4.66667C16.3333 5.58714 15.5871 6.33333 14.6666 6.33333H13V8.83333C13 10.6742 11.5075 12.1667 9.66663 12.1667H4.66663C2.82568 12.1667 1.33329 10.6742 1.33329 8.83333V1.33333C1.33329 0.8731 1.70639 0.5 2.16663 0.5ZM13 2.16667V4.66667H14.6666V2.16667H13ZM-0.333374 13.8333H14.6666V15.5H-0.333374V13.8333Z" fill="white"/>
</svg>
