<svg width="21" height="20" viewBox="0 0 21 20" fill="none" xmlns="http://www.w3.org/2000/svg">
<path d="M19.086 1.95558C21.443 4.31742 21.524 8.08021 19.3319 10.5344L10.4999 19.3802L1.6681 10.5344C-0.523906 8.08021 -0.441968 4.31147 1.91392 1.95558C4.27247 -0.402968 8.04707 -0.482426 10.501 1.71722C12.9479 -0.479166 16.7292 -0.406249 19.086 1.95558ZM3.38705 3.42872C1.83524 4.98053 1.75733 7.46594 3.18743 9.1075L10.4999 16.4316L17.8126 9.1075C19.2432 7.46531 19.1656 4.98464 17.6115 3.42719C16.0622 1.87478 13.5685 1.80006 11.9316 3.23308L7.55372 7.61135L6.08058 6.13817L9.02292 3.19375L8.93771 3.12189C7.29734 1.80414 4.89919 1.91659 3.38705 3.42872Z" fill="#0B2545"/>
</svg>
