<svg width="60" height="62" viewBox="0 0 60 62" fill="none" xmlns="http://www.w3.org/2000/svg">
<path d="M31.61 2.48247C31.0331 2.5854 30.5196 3.00317 30.1041 3.69341C29.631 4.48657 28.5578 5.67934 27.6058 6.47856C26.4576 7.4352 24.7036 8.48872 23.2785 9.07602C22.9323 9.22133 22.6323 9.34848 22.6265 9.35454C22.615 9.36665 22.7131 9.47563 22.84 9.59673C23.417 10.1416 23.9478 11.1104 24.1786 12.0186C24.3459 12.6846 24.3459 13.7623 24.1786 14.4405C23.9247 15.4698 23.3016 16.487 22.5457 17.1045C22.3034 17.3043 21.7784 17.6252 21.2649 17.8916C20.786 18.1338 20.2148 18.4668 19.9897 18.6243C18.605 19.5991 17.5953 20.8584 17.0125 22.3176C16.6606 23.2077 16.2913 23.7889 15.749 24.2975C14.8373 25.1573 13.8334 25.5508 12.5237 25.5569C11.6467 25.5569 11.1158 25.4297 10.4466 25.0664C9.46569 24.5336 8.69254 23.6254 8.04056 22.251L7.66553 21.4639L7.70015 22.7959C7.78669 26.12 8.05787 28.8991 8.56561 31.5752C10.6947 42.7522 16.4529 51.2772 25.5864 56.7446C27.2135 57.7194 30.2599 59.2391 31.0388 59.4631C31.4023 59.5661 32.2678 59.5539 32.6832 59.4389C33.5775 59.1967 36.774 57.5922 38.5107 56.5206C44.6439 52.7364 49.2193 47.5838 52.1562 41.1416C55.8719 33.0041 56.9508 22.8686 55.2084 12.503C55.0353 11.4555 54.3775 10.7592 53.5005 10.6745C53.3159 10.6563 52.7793 10.6926 52.3004 10.7532C51.1118 10.9045 48.6597 10.9045 47.4826 10.7592C46.421 10.62 44.892 10.2991 43.9631 10.0206C40.1954 8.87016 36.549 6.57544 33.8891 3.68129C33.5141 3.26958 33.1217 2.86996 33.0179 2.79731C32.6486 2.52485 32.0832 2.3977 31.61 2.48247ZM32.8852 15.8633C36.3874 16.1418 39.5665 17.6676 42.0302 20.253C43.1957 21.47 44.09 22.7838 44.8055 24.3096C45.4863 25.7809 45.8383 26.9313 46.1152 28.5782C46.2825 29.6196 46.2998 32.1928 46.1383 33.21C45.8498 35.0082 45.3882 36.4795 44.6497 37.9629C42.4514 42.3586 38.3953 45.3194 33.6641 45.9854C32.7467 46.1186 30.9523 46.1186 30.0349 45.9854C27.7097 45.6584 25.5518 44.7866 23.6824 43.4243C22.0957 42.2678 20.6533 40.6815 19.5916 38.9317C18.5877 37.2788 17.8145 34.978 17.5318 32.8165C17.4222 31.987 17.4337 29.7467 17.5549 28.9233C17.8895 26.6165 18.68 24.4307 19.8397 22.6143C20.9417 20.8766 22.5227 19.254 24.1959 18.1338C24.7959 17.7403 25.9095 17.153 26.6077 16.8624C28.6213 16.0389 30.7676 15.6998 32.8852 15.8633Z" fill="#8DA9C4" fill-opacity="0.5"/>
<path d="M30.8653 19.4962C24.8244 20.1016 20.3586 25.7507 20.9471 32.0657C21.1491 34.2878 22.0203 36.5098 23.3647 38.2354C23.8551 38.8651 24.8821 39.8762 25.4879 40.3243C27.6112 41.8925 30.023 42.6069 32.6136 42.4374C37.1486 42.1286 41.1182 38.7864 42.376 34.2091C42.7222 32.9557 42.7741 32.5137 42.7799 31.0001C42.7799 29.5712 42.7453 29.2382 42.4799 28.1241C41.6259 24.5276 39.0988 21.5608 35.7119 20.1864C34.3041 19.6173 32.3943 19.3448 30.8653 19.4962ZM38.9026 25.2239C39.2719 25.3571 39.7046 25.7749 39.8719 26.1684C40.0681 26.6286 40.0623 27.222 39.8604 27.67C39.7392 27.9364 38.8853 28.9354 35.6831 32.544C33.4617 35.0386 31.5981 37.1274 31.5346 37.1819C31.4654 37.2364 31.2981 37.3454 31.1538 37.4241C30.8019 37.6118 30.1499 37.6178 29.7633 37.4362C29.5787 37.3514 28.6382 36.4917 26.7746 34.7177C24.259 32.32 24.0397 32.0899 23.8724 31.7448C23.7166 31.4057 23.6993 31.327 23.7224 30.8971C23.7685 29.9587 24.2705 29.3593 25.1533 29.1837C25.5225 29.111 26.0476 29.2261 26.3649 29.4561C26.4746 29.5348 27.4093 30.4067 28.442 31.3876C29.4691 32.3745 30.3288 33.1798 30.3518 33.1798C30.3691 33.1798 31.5404 31.878 32.9482 30.2856C36.3755 26.4167 37.2063 25.4964 37.3679 25.3874C37.7544 25.121 38.418 25.0483 38.9026 25.2239Z" fill="#8DA9C4" fill-opacity="0.5"/>
<path d="M12.1888 4.23839C11.7099 4.35343 11.2714 4.78331 11.0752 5.32823C10.8964 5.81866 10.2963 6.96905 9.95013 7.47764C8.76733 9.21534 7.32489 10.4808 5.43818 11.4495C4.98814 11.6796 4.5381 11.9521 4.44001 12.055C3.8515 12.6726 3.83419 13.6898 4.39962 14.3316C4.57272 14.5314 4.83813 14.7009 5.50165 15.0399C6.49405 15.5485 7.17488 16.0087 7.97688 16.711C9.25776 17.8312 10.3656 19.3812 11.0233 20.9796C11.4214 21.9483 11.7965 22.2511 12.6042 22.245C12.9389 22.245 13.06 22.2148 13.3139 22.0694C13.6947 21.8515 13.8505 21.6396 14.1563 20.8888C14.6409 19.7202 15.3737 18.588 16.2969 17.5708C17.2431 16.5233 18.2586 15.7605 19.6606 15.0339C20.6588 14.5132 20.9358 14.2589 21.0858 13.7261C21.1954 13.3386 21.1954 13.1206 21.08 12.721C20.93 12.1882 20.6415 11.9218 19.701 11.4495C17.1335 10.1417 15.1429 7.99835 14.0986 5.41905C13.8216 4.74093 13.5332 4.40792 13.0889 4.27472C12.7658 4.17179 12.4888 4.15968 12.1888 4.23839Z" fill="#8DA9C4" fill-opacity="0.5"/>
</svg>
