<svg width="26" height="26" viewBox="0 0 26 26" fill="none" xmlns="http://www.w3.org/2000/svg">
<path d="M13 25.5C6.09644 25.5 0.5 19.9035 0.5 13C0.5 6.09644 6.09644 0.5 13 0.5C19.9035 0.5 25.5 6.09644 25.5 13C25.5 19.9035 19.9035 25.5 13 25.5ZM13 9.875C14.0355 9.875 14.875 9.03554 14.875 8C14.875 6.96446 14.0355 6.125 13 6.125C11.9645 6.125 11.125 6.96446 11.125 8C11.125 9.03554 11.9645 9.875 13 9.875ZM15.5 16.75H14.25V11.125H10.5V13.625H11.75V16.75H10.5V19.25H15.5V16.75Z" fill="#8DA9C4"/>
</svg>
