<svg width="13" height="20" viewBox="0 0 13 20" fill="none" xmlns="http://www.w3.org/2000/svg">
<path d="M2.23771 7.11976L5.04557 5.07975C5.35377 4.85514 5.7346 4.73081 6.13435 4.74428C7.10801 4.76822 7.96306 5.40648 8.26048 6.33834C8.42369 6.84992 8.57254 7.19513 8.7071 7.37397C9.50634 8.43664 10.778 9.12392 12.2101 9.12392V10.8761C10.3049 10.8761 8.60267 10.0073 7.47789 8.64436L6.86674 12.11L8.67241 13.6252L10.6201 18.9762L8.9736 19.5754L7.18651 14.6656L4.21643 12.1733C3.73674 11.7856 3.4767 11.1557 3.5914 10.5052L4.03696 7.97828L3.44401 8.40913L1.5806 10.9738L0.163086 9.94401L2.22285 7.10896L2.23771 7.11976ZM7.39168 4.30554C6.42398 4.30554 5.63955 3.52109 5.63955 2.55341C5.63955 1.58573 6.42398 0.80127 7.39168 0.80127C8.3593 0.80127 9.14382 1.58573 9.14382 2.55341C9.14382 3.52109 8.3593 4.30554 7.39168 4.30554ZM4.78836 15.8533L1.97272 19.2089L0.630512 18.0826L3.23696 14.9763L3.89097 13.0662L5.46013 14.3803L4.78836 15.8533Z" fill="#8DA9C4"/>
</svg>
