<svg width="18" height="22" viewBox="0 0 18 22" fill="none" xmlns="http://www.w3.org/2000/svg">
<path d="M0.78307 1.82598L9 0L17.2169 1.82598C17.6745 1.92766 18 2.33347 18 2.80217V12.7889C18 14.795 16.9974 16.6684 15.3282 17.7812L9 22L2.6718 17.7812C1.00261 16.6684 0 14.795 0 12.7889V2.80217C0 2.33347 0.32553 1.92766 0.78307 1.82598ZM9 10C10.3807 10 11.5 8.88071 11.5 7.5C11.5 6.11929 10.3807 5 9 5C7.6193 5 6.5 6.11929 6.5 7.5C6.5 8.88071 7.6193 10 9 10ZM4.52746 15H13.4725C13.2238 12.75 11.3163 11 9 11C6.68372 11 4.77619 12.75 4.52746 15Z" fill="white"/>
</svg>
