<svg width="16" height="20" viewBox="0 0 16 20" fill="none" xmlns="http://www.w3.org/2000/svg">
<path d="M6.99967 11.6666V18.3333H0.333008C0.333008 14.6514 3.31777 11.6666 6.99967 11.6666ZM11.9997 17.9166L9.55059 19.2042L10.0183 16.4771L8.03693 14.5457L10.7751 14.1479L11.9997 11.6666L13.2243 14.1479L15.9624 14.5457L13.981 16.4771L14.4488 19.2042L11.9997 17.9166ZM6.99967 10.8333C4.23717 10.8333 1.99967 8.59581 1.99967 5.83331C1.99967 3.07081 4.23717 0.833313 6.99967 0.833313C9.76217 0.833313 11.9997 3.07081 11.9997 5.83331C11.9997 8.59581 9.76217 10.8333 6.99967 10.8333Z" fill="#0B2545"/>
</svg>
