<svg width="20" height="20" viewBox="0 0 20 20" fill="none" xmlns="http://www.w3.org/2000/svg">
<path d="M10 11.6667V18.3333H3.33334C3.33334 14.6514 6.3181 11.6667 10 11.6667ZM15 17.9167L12.5509 19.2043L13.0187 16.4771L11.0373 14.5458L13.7754 14.1479L15 11.6667L16.2246 14.1479L18.9628 14.5458L16.9813 16.4771L17.4491 19.2043L15 17.9167ZM10 10.8333C7.2375 10.8333 5 8.59583 5 5.83333C5 3.07083 7.2375 0.833334 10 0.833334C12.7625 0.833334 15 3.07083 15 5.83333C15 8.59583 12.7625 10.8333 10 10.8333Z" fill="#8DA9C4"/>
</svg>
