<svg width="13" height="13" viewBox="0 0 13 13" fill="none" xmlns="http://www.w3.org/2000/svg">
<path d="M6.5 1.5C8.21788 1.5 9.73431 2.36641 10.6348 3.6875H9V4.9375H12.75V1.1875H11.5V2.7496C10.3601 1.23229 8.54525 0.25 6.5 0.25C3.04822 0.25 0.25 3.04822 0.25 6.5H1.5C1.5 3.73857 3.73857 1.5 6.5 1.5ZM11.5 6.5C11.5 9.26144 9.26144 11.5 6.5 11.5C4.78215 11.5 3.26568 10.6336 2.36527 9.3125H4V8.0625H0.25V11.8125H1.5V10.2504C2.63988 11.7677 4.45477 12.75 6.5 12.75C9.95175 12.75 12.75 9.95175 12.75 6.5H11.5Z" fill="#0B2545"/>
</svg>
