<svg width="19" height="19" viewBox="0 0 19 19" fill="none" xmlns="http://www.w3.org/2000/svg">
<path d="M11.8789 1.58557C13.6278 1.58557 15.0455 3.00334 15.0455 4.75224C15.0455 5.32939 14.8911 5.87047 14.6214 6.33645L18.2122 6.33557V7.9189H16.6289V15.8356C16.6289 16.2728 16.2745 16.6272 15.8372 16.6272H3.17053C2.73331 16.6272 2.37887 16.2728 2.37887 15.8356V7.9189H0.795532V6.33557L4.38635 6.33645C4.11661 5.87047 3.9622 5.32939 3.9622 4.75224C3.9622 3.00334 5.37996 1.58557 7.12887 1.58557C8.07508 1.58557 8.92438 2.00057 9.50459 2.65849C10.0834 2.00057 10.9327 1.58557 11.8789 1.58557ZM8.71221 7.9189H3.9622V15.0439H8.71221V7.9189ZM15.0455 7.9189H10.2955V15.0439H15.0455V7.9189ZM7.12887 3.1689C6.25441 3.1689 5.54553 3.87779 5.54553 4.75224C5.54553 5.58694 6.19144 6.27078 7.0107 6.33123L7.12887 6.33557H8.71221V4.75224C8.71221 3.95927 8.12931 3.30245 7.36857 3.18693L7.24704 3.17324L7.12887 3.1689ZM11.8789 3.1689C11.0441 3.1689 10.3603 3.81481 10.2999 4.63407L10.2955 4.75224V6.33557H11.8789C12.7135 6.33557 13.3974 5.68967 13.4579 4.8704L13.4622 4.75224C13.4622 3.87779 12.7534 3.1689 11.8789 3.1689Z" fill="#0B2545"/>
</svg>
