<svg width="17" height="17" viewBox="0 0 17 17" fill="none" xmlns="http://www.w3.org/2000/svg">
<path d="M8.01564 0.00613896C7.9703 0.0102612 7.81777 0.0246889 7.67762 0.0370555C6.28637 0.1566 4.80444 0.702793 3.63579 1.52311C3.08341 1.91266 2.50424 2.43412 2.07347 2.93085C1.05323 4.10568 0.366877 5.56082 0.1113 7.09016C0.0247333 7.6178 0 7.92491 0 8.50614C0 9.08737 0.0247333 9.39447 0.1113 9.92212C0.486421 12.1625 1.75194 14.1639 3.63579 15.4892C4.64779 16.2002 5.88033 16.7011 7.11082 16.9031C7.63846 16.9896 7.8961 17.0082 8.54122 17.0061C9.34918 17.0041 9.84384 16.9443 10.5879 16.7588C13.7661 15.9612 16.223 13.3745 16.8557 10.155C16.9732 9.55318 17 9.2502 17 8.50614C17 7.76208 16.9732 7.4591 16.8557 6.85725C16.4682 4.89096 15.3882 3.11429 13.8177 1.85907C12.546 0.842948 11.1011 0.245227 9.4378 0.0432389C9.18635 0.0143834 8.20526 -0.012411 8.01564 0.00613896ZM11.9173 4.46019L11.9111 5.09501L10.8558 5.10531L9.80056 5.11562L9.89331 5.2599C10.0871 5.5567 10.2478 5.92357 10.3241 6.23274L10.3591 6.3832H11.1403H11.9214L11.9173 7.01596L11.9111 7.65078L11.1362 7.65696L10.3591 7.66109L10.3241 7.80124C9.97163 9.21104 8.67519 10.2107 7.1912 10.2169H7.06753L8.65046 11.7998L10.2313 13.3807L9.78201 13.83L9.33475 14.2772L7.21593 12.1584L5.09918 10.0417V9.48929V8.93897H6.14828C6.73157 8.93897 7.29013 8.92866 7.40761 8.91836C7.94969 8.86271 8.42786 8.59683 8.74733 8.1743C8.86069 8.02384 9.01528 7.74147 9.01528 7.68376C9.01528 7.66727 8.51443 7.66109 7.05723 7.66109H5.09918V7.02214V6.3832H7.05723C8.79886 6.3832 9.01528 6.37908 9.01528 6.35228C9.01528 6.30282 8.87512 6.03487 8.77825 5.89884C8.67726 5.75868 8.45053 5.53402 8.3145 5.44127C8.1661 5.34028 7.93732 5.2331 7.74357 5.17333L7.5622 5.11768L6.33172 5.10944L5.09918 5.10325V4.46431V3.82743H8.51031H11.9214L11.9173 4.46019Z" fill="#40C057"/>
</svg>
