<svg width="17" height="17" viewBox="0 0 17 17" fill="none" xmlns="http://www.w3.org/2000/svg">
<path d="M14.8335 8.49998C14.8335 5.00217 11.998 2.16665 8.50016 2.16665C5.00236 2.16665 2.16683 5.00217 2.16683 8.49998C2.16683 11.9978 5.00236 14.8333 8.50016 14.8333C11.998 14.8333 14.8335 11.9978 14.8335 8.49998ZM16.4168 8.49998C16.4168 12.8722 12.8724 16.4166 8.50016 16.4166C4.12791 16.4166 0.583496 12.8722 0.583496 8.49998C0.583496 4.12772 4.12791 0.583313 8.50016 0.583313C12.8724 0.583313 16.4168 4.12772 16.4168 8.49998ZM9.6879 5.33331C9.94717 5.67853 10.133 6.0821 10.222 6.52081H11.6668V7.70831H10.222C9.94693 9.06341 8.74891 10.0833 7.31266 10.0833H7.1628L10.1075 13.0281L9.26784 13.8677L5.3335 9.93345V8.89581H7.31266C8.08826 8.89581 8.74803 8.40015 8.99258 7.70831H5.3335V6.52081H8.99258C8.74803 5.82898 8.08826 5.33331 7.31266 5.33331H5.3335V4.14581H11.6668V5.33331H9.6879Z" fill="#0B2545"/>
</svg>
