<svg width="16" height="13" viewBox="0 0 16 13" fill="none" xmlns="http://www.w3.org/2000/svg">
<path d="M1.87051 2.46667L4.67003 4.33301L7.46087 0.425832C7.67487 0.126225 8.09127 0.0568318 8.39087 0.270832C8.45073 0.313592 8.50307 0.365965 8.54587 0.425832L11.3367 4.33301L14.1362 2.46667C14.4426 2.26243 14.8565 2.34521 15.0607 2.65157C15.1485 2.78331 15.1866 2.94201 15.1681 3.09926L14.0727 12.4109C14.0331 12.7466 13.7486 12.9997 13.4105 12.9997H2.5962C2.25815 12.9997 1.9736 12.7466 1.9341 12.4109L0.838615 3.09926C0.795595 2.73359 1.05715 2.40229 1.42282 2.35927C1.58007 2.34077 1.73877 2.37884 1.87051 2.46667ZM8.0034 8.99969C8.73973 8.99969 9.33673 8.40276 9.33673 7.66636C9.33673 6.92996 8.73973 6.33303 8.0034 6.33303C7.267 6.33303 6.67007 6.92996 6.67007 7.66636C6.67007 8.40276 7.267 8.99969 8.0034 8.99969Z" fill="#0B2545"/>
</svg>
