<svg width="21" height="21" viewBox="0 0 21 21" fill="none" xmlns="http://www.w3.org/2000/svg">
<path d="M5.2915 20.3958C2.70267 20.3958 0.604004 18.2971 0.604004 15.7083C0.604004 13.1194 2.70267 11.0208 5.2915 11.0208C7.88034 11.0208 9.979 13.1194 9.979 15.7083C9.979 18.2971 7.88034 20.3958 5.2915 20.3958ZM15.7082 9.97913C13.1193 9.97913 11.0207 7.88046 11.0207 5.29163C11.0207 2.70279 13.1193 0.604126 15.7082 0.604126C18.297 0.604126 20.3957 2.70279 20.3957 5.29163C20.3957 7.88046 18.297 9.97913 15.7082 9.97913ZM1.12484 6.33329C1.12484 3.45681 3.45669 1.12496 6.33317 1.12496H9.45817V3.20829H6.33317C4.60729 3.20829 3.20817 4.60741 3.20817 6.33329V9.45829H1.12484V6.33329ZM17.7915 11.5416V14.6666C17.7915 16.3926 16.3924 17.7916 14.6665 17.7916H11.5415V19.875H14.6665C17.543 19.875 19.8748 17.5431 19.8748 14.6666V11.5416H17.7915Z" fill="#8DA9C4"/>
</svg>
