<svg width="20" height="20" viewBox="0 0 20 20" fill="none" xmlns="http://www.w3.org/2000/svg">
<path d="M5.31859 4.97342C6.60166 3.94706 8.22916 3.33333 10 3.33333C11.7708 3.33333 13.3983 3.94706 14.6814 4.97342L15.8926 3.76227L17.0711 4.94078L15.8599 6.15193C16.8863 7.43499 17.5 9.0625 17.5 10.8333C17.5 14.9755 14.1422 18.3333 10 18.3333C5.85787 18.3333 2.5 14.9755 2.5 10.8333C2.5 9.0625 3.11373 7.43499 4.14008 6.15193L2.92893 4.94078L4.10744 3.76227L5.31859 4.97342ZM10.8333 10V6.246L6.66667 11.6667H9.16667V15.4167L13.3333 10H10.8333ZM6.66667 0.833334H13.3333V2.5H6.66667V0.833334Z" fill="#8DA9C4"/>
</svg>
