<svg width="21" height="21" viewBox="0 0 21 21" fill="none" xmlns="http://www.w3.org/2000/svg">
<path d="M9.8312 0.1875C9.46987 0.319336 9.30385 0.441406 8.34194 1.28125C7.04311 2.41895 6.97475 2.44336 5.32436 2.44336C4.12807 2.44336 3.8351 2.4873 3.44936 2.71191C3.13198 2.89746 2.79506 3.26367 2.62417 3.61523L2.46792 3.92773L2.43862 5.25098C2.40444 7.02344 2.41421 6.99902 1.34975 8.24414C0.96401 8.69336 0.573385 9.17188 0.475729 9.29883C-0.0125525 9.93359 -0.0174354 11.0615 0.465963 11.6914C0.553854 11.8086 0.949362 12.2822 1.33999 12.7461C2.41421 14.001 2.40444 13.9766 2.43862 15.749C2.46792 17.0527 2.46792 17.0723 2.59975 17.3506C2.86342 17.9121 3.4396 18.3711 4.04506 18.5029C4.19155 18.5322 4.7726 18.5566 5.39272 18.5566C7.00405 18.5566 6.98452 18.5469 8.51284 19.8604C9.62612 20.8223 9.72866 20.8711 10.5246 20.876C11.0275 20.876 11.0812 20.8662 11.379 20.7246C11.5988 20.6172 11.9894 20.3193 12.6583 19.7432C13.6154 18.918 13.9376 18.708 14.3624 18.6104C14.4796 18.5811 15.0558 18.5566 15.6369 18.5566C16.2326 18.5566 16.8087 18.5322 16.9552 18.5029C17.6583 18.3516 18.2199 17.8438 18.4542 17.1504C18.547 16.8818 18.5568 16.7354 18.5568 15.7344C18.5568 14.0645 18.5763 14.0156 19.758 12.6436C20.3244 11.9844 20.6173 11.5986 20.7248 11.3789C20.8664 11.0811 20.8761 11.0273 20.8761 10.5C20.8761 9.96777 20.8664 9.91895 20.7248 9.62109C20.6173 9.40137 20.3341 9.03516 19.8263 8.44922C18.547 6.96973 18.5958 7.10156 18.5568 5.34863C18.5324 4.2793 18.508 3.99121 18.4396 3.81055C18.1759 3.11719 17.6437 2.64355 16.9552 2.49707C16.8087 2.46777 16.2326 2.44336 15.6369 2.44336C14.0548 2.44336 14.0109 2.42383 12.6535 1.25195C11.4669 0.236328 11.2863 0.133789 10.5734 0.114258C10.1925 0.0996094 10.0265 0.119141 9.8312 0.1875ZM14.6749 7.32129C15.0021 7.50684 15.1486 8.00488 14.9728 8.3418C14.8849 8.50293 9.73843 13.6396 9.58706 13.7178C9.43569 13.7959 9.05483 13.7861 8.89858 13.7031C8.69839 13.5957 6.06655 10.9346 6.00796 10.7783C5.7687 10.1338 6.41811 9.51367 7.048 9.78711C7.13589 9.82617 7.66323 10.3193 8.22964 10.8857L9.25503 11.916L11.5744 9.60156C14.0011 7.1748 14.0304 7.15039 14.382 7.21387C14.465 7.22852 14.5919 7.27734 14.6749 7.32129Z" fill="#8DA9C4"/>
</svg>
