<svg width="12" height="14" viewBox="0 0 12 14" fill="none" xmlns="http://www.w3.org/2000/svg">
<path d="M1.99984 1.66671H0.666504V0.333374H11.3332V1.66671H9.99984V3.00004C9.99984 4.07699 9.4557 4.94316 8.77057 5.65115C8.30197 6.13537 7.73184 6.58137 7.15377 7.00004C7.73184 7.41871 8.30197 7.86471 8.77057 8.34891C9.4557 9.05691 9.99984 9.92311 9.99984 11V12.3334H11.3332V13.6667H0.666504V12.3334H1.99984V11C1.99984 9.92311 2.54394 9.05691 3.2291 8.34891C3.69772 7.86471 4.26785 7.41871 4.8459 7.00004C4.26785 6.58137 3.69772 6.13537 3.2291 5.65115C2.54394 4.94316 1.99984 4.07699 1.99984 3.00004V1.66671ZM3.33317 1.66671V3.00004C3.33317 3.4568 3.50668 3.89003 3.84738 4.33337H8.1523C8.49297 3.89003 8.6665 3.4568 8.6665 3.00004V1.66671H3.33317ZM5.99984 7.81464C5.30304 8.30684 4.67184 8.77537 4.18724 9.27617C4.05989 9.40777 3.94655 9.53764 3.84738 9.66671H8.1523C8.0531 9.53764 7.93977 9.40777 7.81244 9.27617C7.32784 8.77537 6.69664 8.30684 5.99984 7.81464Z" fill="#EEF4ED"/>
</svg>
