<svg width="23" height="19" viewBox="0 0 23 19" fill="none" xmlns="http://www.w3.org/2000/svg">
<path d="M4.00488 7.00268C4.55717 7.00268 5.00488 7.45039 5.00488 8.0027C6.63965 8.0027 8.14352 8.5631 9.3349 9.5022L11.5049 9.5027C12.837 9.5027 14.0339 10.0815 14.8579 11.0014L18.0049 11.0027C19.9972 11.0027 21.7173 12.1679 22.521 13.8541C20.1562 16.9747 16.3268 19.0027 12.0049 19.0027C9.2142 19.0027 6.85466 18.3994 4.944 17.3447C4.80557 17.7283 4.43727 18.0027 4.00488 18.0027H1.00488C0.452603 18.0027 0.00488281 17.555 0.00488281 17.0027V8.0027C0.00488281 7.45039 0.452603 7.00268 1.00488 7.00268H4.00488ZM5.00589 10.0027L5.00488 15.0238L5.05024 15.0572C6.84406 16.3176 9.183 17.0027 12.0049 17.0027C15.0089 17.0027 17.8035 15.847 19.84 13.8732L19.9729 13.7397L19.8537 13.6393C19.3897 13.2763 18.8205 13.051 18.2099 13.0096L18.0049 13.0027L15.8932 13.0017C15.9663 13.3236 16.0049 13.6586 16.0049 14.0027V15.0027H7.00488V13.0027L13.7949 13.0017L13.7605 12.9232C13.38 12.1296 12.593 11.568 11.6693 11.508L11.5049 11.5027L8.57547 11.5025C7.66823 10.5772 6.40412 10.003 5.00589 10.0027ZM3.00488 9.0027H2.00488V16.0027H3.00488V9.0027ZM12.6513 1.57806L13.0046 1.93183L13.3584 1.57806C14.3347 0.601748 15.9177 0.601748 16.894 1.57806C17.8703 2.55437 17.8703 4.13728 16.894 5.11359L13.0049 9.0027L9.1158 5.11359C8.13948 4.13728 8.13948 2.55437 9.1158 1.57806C10.0921 0.601748 11.675 0.601748 12.6513 1.57806ZM10.53 2.99227C10.3564 3.16584 10.3372 3.43526 10.4714 3.62938L10.5289 3.69831L13.0039 6.17368L15.4798 3.69938C15.6533 3.52581 15.6726 3.25639 15.5376 3.06152L15.4798 2.99227C15.3062 2.81871 15.0368 2.79942 14.8417 2.93457L14.7724 2.99249L13.0033 4.76111L11.236 2.9912L11.1679 2.93442C10.973 2.79942 10.7036 2.81871 10.53 2.99227Z" fill="#0B2545"/>
</svg>
